<svg width="174" height="214" viewBox="0 0 174 214" fill="none" xmlns="http://www.w3.org/2000/svg">
<path d="M49.385 42.8044L49.2623 42.9267C48.4031 43.844 47.4211 44.272 46.5006 44.272L48.219 41.2757C49.3236 39.3801 48.2803 37.5456 46.5619 37.5456C45.1504 37.5456 44.0457 38.096 43.0024 39.9304L42.0819 41.5203L41.3454 42.8044L41.2227 42.9267C39.8725 44.4555 38.5837 45.6785 37.7859 45.6785C37.3563 45.6785 37.1722 45.3727 37.6018 44.7001L41.5295 37.8514H43.0024L43.5548 36.9953H42.0205L43.7389 33.999H41.8977L40.1793 36.9953H38.5223L37.97 37.8514H39.627L35.9447 44.2109C35.1469 45.5562 35.6993 46.8403 37.1722 46.8403C38.2155 46.8403 39.4429 46.0454 40.5476 44.9447C40.5476 47.2683 43.8002 47.7575 45.7641 45.2504H46.1937C47.2984 45.2504 49.0168 44.5778 49.9374 43.4771C49.9374 43.1713 49.6305 42.9267 49.385 42.8044ZM45.4573 42.9267H45.3959C44.7822 42.9267 44.2912 43.4159 44.2912 44.0274C44.2912 44.272 44.3526 44.4555 44.4753 44.6389V44.7001C43.6161 46.1677 41.5295 45.9231 42.5728 43.9663L43.9844 41.5815L44.8436 40.1139C46.1323 37.9125 47.9121 38.7686 46.8074 40.6642L45.4573 42.9267Z" fill="#766458"/>
<path d="M74.854 42.8042L74.7312 42.9265C73.3811 44.4552 71.7241 45.6782 70.4353 45.6782C69.3306 45.6782 68.6555 44.9444 69.4533 43.4768L69.6374 43.1711C70.8035 43.6603 73.0742 43.4157 74.4244 41.0309L74.6699 40.6028C75.6518 38.8907 74.7312 37.6677 73.197 37.6677C71.7241 37.6677 70.558 38.4626 69.7602 39.8079L67.9804 42.8654L67.8577 42.9877C66.5075 44.5164 65.2187 45.7394 64.4209 45.7394C63.9913 45.7394 63.8072 45.4336 64.2368 44.761L66.8757 40.1136C67.6736 38.7072 66.9371 37.7288 65.8938 37.7288C65.096 37.7288 64.2368 38.1569 63.3162 39.1353L66.262 34.0599H64.4209L59.3271 42.8042L59.2044 42.9265C57.8542 44.4552 56.5654 45.6782 55.7676 45.6782C55.338 45.6782 55.1539 45.3725 55.5835 44.6998L59.5112 37.8511H60.9841L61.5365 36.995H60.0022L61.7206 33.9987H59.8794L58.1611 36.995H56.504L55.9517 37.8511H57.6087L53.9265 44.2106C53.1286 45.5559 53.681 46.8401 55.1539 46.8401C55.8903 46.8401 56.6882 46.4732 57.486 45.8617L56.995 46.6566H58.8361L61.5978 41.8258C64.4209 38.2792 65.6483 38.7684 64.9119 40.1136L62.5184 44.2718C61.7206 45.6171 62.2729 46.9012 63.7458 46.9012C64.8505 46.9012 66.0779 46.0451 67.1826 44.9444C67.244 46.1063 68.2259 46.9012 69.6988 46.9012C71.7854 46.9012 73.872 45.3113 75.3449 43.538C75.4063 43.1711 75.0995 42.9265 74.854 42.8042ZM71.3558 40.2359C72.3991 38.4015 74.3016 38.7072 73.197 40.6028L72.9515 41.0309C72.0923 42.4985 70.8649 42.4985 70.1898 42.2539L71.3558 40.2359Z" fill="#766458"/>
<path d="M141.81 42.8044L141.687 42.9267C141.012 43.7217 140.214 44.3943 139.478 44.9446C140.091 43.1713 139.907 40.5419 141.073 38.1571L139.723 37.4233C138.987 38.4628 137.33 40.8476 135.611 42.8044L135.488 42.9267C134.138 44.4554 132.849 45.6784 132.052 45.6784C131.622 45.6784 131.438 45.3727 131.868 44.7L135.795 37.8513H133.954L130.701 43.5382C129.29 44.8223 128.247 45.495 127.878 45.3727C127.449 45.1892 127.878 44.5166 128.124 44.0886L131.683 37.8513H129.842L126.958 42.8044L126.835 42.9267C125.976 43.844 124.994 44.272 124.073 44.272L125.792 41.2757C126.896 39.3801 125.853 37.5456 124.135 37.5456C122.723 37.5456 121.619 38.0959 120.575 39.9304L119.655 41.5203L118.918 42.8044L118.796 42.9267C117.445 44.4554 115.788 45.6784 114.5 45.6784C113.395 45.6784 112.72 44.9446 113.518 43.4771L113.702 43.1713C114.868 43.6605 117.138 43.4159 118.489 41.0311L118.734 40.6031C119.716 38.8909 118.796 37.6679 117.261 37.6679C115.788 37.6679 114.622 38.4628 113.824 39.8081L112.045 42.8656L111.922 42.9879C110.388 44.7612 109.099 45.8619 107.626 46.4734L111.738 39.4412H110.633C110.633 38.7074 109.835 37.6679 108.731 37.6679C107.749 37.6679 106.337 38.4628 105.601 39.8081L103.821 42.8656L103.698 42.9879C102.348 44.5166 101.059 45.7396 100.261 45.7396C99.8319 45.7396 99.6477 45.4338 100.077 44.7612L101.918 41.5814C102.532 40.4808 102.225 39.8081 101.673 39.0743L100.63 37.8513C100.384 37.5456 100.384 37.1175 100.752 36.8118L99.7705 35.7723C98.7272 36.6895 98.6658 37.729 99.2795 38.5851L99.4636 38.7686C98.6658 39.9304 97.5611 41.4591 96.3337 42.8656L96.211 42.9879C95.3518 43.9051 94.3698 44.3332 93.4493 44.3332L95.1677 41.3368C96.2723 39.4412 95.229 37.6067 93.5106 37.6067C92.0991 37.6067 90.9944 38.1571 89.9511 39.9916L89.0306 41.5814L88.2941 42.8656L88.1714 42.9879C86.6371 44.7612 85.3483 45.8619 83.8754 46.4734L87.9872 39.4412H86.8826C86.8826 38.7074 86.0847 37.6679 84.9801 37.6679C83.9981 37.6679 82.5866 38.4628 81.8501 39.8081L79.2726 44.272C78.4747 45.6173 79.0271 46.9014 80.5 46.9014C80.9909 46.9014 81.6047 46.6568 82.2797 46.2899L81.7888 47.146C79.3339 47.8798 77.7383 48.9193 77.7383 50.2646C77.7383 52.038 80.4386 52.4048 81.7888 50.1423L83.2003 47.7575C84.6732 47.3295 86.0847 46.4122 87.619 45.0058C87.619 47.3295 90.8717 47.8187 92.8356 45.3115H93.2652C94.3698 45.3115 96.0882 44.6389 97.0088 43.5382C97.868 42.4987 98.6044 41.5814 100.077 39.6247L100.323 39.9304C100.568 40.2362 100.63 40.6031 100.446 40.9699L98.4817 44.3332C97.6839 45.6784 98.2362 46.9626 99.7091 46.9626C100.63 46.9626 101.673 46.3511 102.655 45.495C102.655 46.3511 103.207 46.9626 104.251 46.9626C104.742 46.9626 105.355 46.718 106.03 46.3511L105.601 47.0849C103.146 47.8187 101.55 48.8582 101.55 50.2035C101.55 51.9768 104.251 52.3437 105.601 50.0812L107.012 47.6964C108.485 47.2072 109.958 46.3511 111.492 44.8835C111.554 46.0453 112.474 46.8403 114.009 46.8403C115.481 46.8403 117.016 45.9842 118.243 44.8835C118.182 47.2683 121.496 47.7575 123.46 45.2504H123.889C124.442 45.2504 125.239 45.0669 125.915 44.7C125.424 45.9842 125.853 46.8403 126.896 46.8403C127.878 46.8403 129.044 45.923 129.904 45.0669C129.72 46.0453 130.333 46.8403 131.499 46.8403C133.034 46.8403 134.752 45.2504 136.286 43.4771C137.33 42.2541 138.25 40.9699 138.925 40.1139C138.189 42.0095 138.618 45.4338 136.839 45.4338C136.225 45.4338 135.979 44.7612 135.979 44.7612L134.813 45.3727C134.813 45.3727 135.12 46.8403 136.839 46.8403C137.023 46.8403 137.145 46.8403 137.33 46.7791H137.391C139.293 46.5345 141.135 45.0669 142.485 43.4771C142.423 43.1713 142.117 42.8656 141.81 42.8044ZM115.481 40.2362C116.525 38.4017 118.427 38.7074 117.323 40.6031L117.077 41.0311C116.218 42.4987 114.991 42.4987 114.315 42.2541L115.481 40.2362ZM80.3772 49.7754C80.009 50.4481 79.3953 50.3869 79.3953 49.8366C79.3953 49.3474 79.8249 48.797 81.2364 48.2467L80.3772 49.7754ZM81.2364 45.6784C80.8068 45.6784 80.6227 45.3727 81.0523 44.7L83.6299 40.2362C84.6118 38.524 86.5757 38.952 85.6551 40.6031L84.2436 43.049C83.1389 44.8223 81.9729 45.6784 81.2364 45.6784ZM92.5287 42.9267H92.4673C91.8536 42.9267 91.3627 43.4159 91.3627 44.0274C91.3627 44.272 91.424 44.4555 91.5468 44.6389V44.7C90.6876 46.1676 88.601 45.923 89.6443 43.9663L91.0558 41.5814L91.915 40.1139C93.2038 37.9125 94.9835 38.7686 93.8789 40.6642L92.5287 42.9267ZM104.066 49.7754C103.698 50.4481 103.085 50.3869 103.085 49.8366C103.085 49.3474 103.514 48.797 104.926 48.2467L104.066 49.7754ZM104.926 45.6784C104.496 45.6784 104.312 45.3727 104.742 44.7L107.319 40.2362C108.301 38.524 110.265 38.952 109.344 40.6031L107.933 43.049C106.828 44.8223 105.662 45.6784 104.926 45.6784ZM123.03 42.9267H122.969C122.355 42.9267 121.864 43.4159 121.864 44.0274C121.864 44.272 121.925 44.4555 122.048 44.6389V44.7C121.189 46.1676 119.102 45.923 120.146 43.9663L121.557 41.5814L122.416 40.1139C123.705 37.9125 125.485 38.7686 124.38 40.6642L123.03 42.9267Z" fill="#766458"/>
<path d="M27.8437 40.8469H10.1074V42.0699H27.8437V40.8469Z" fill="#766458"/>
<path d="M167.156 40.8469H149.42V42.0699H167.156V40.8469Z" fill="#766458"/>
<path d="M48.0349 0H52.7605L52.024 27.456H43.1252L41.8978 16.1434L40.6704 27.456H31.7102L31.0351 0H35.6993L36.0675 22.7475H36.5585L39.5657 0H44.2299L47.2371 22.7475H47.728L48.0349 0Z" fill="#81B3D3"/>
<path d="M67.5508 22.7475V27.5171H54.7243V0H67.5508V4.70849H59.3885V11.3126H65.8938V16.0211H59.3885V22.6864H67.5508V22.7475Z" fill="#81B3D3"/>
<path d="M80.6842 22.7475V27.5171H69.4533V0H74.1175V22.7475H80.6842Z" fill="#81B3D3"/>
<path d="M90.6263 17.3664L95.3519 16.2657V24.582C95.3519 26.1719 94.0017 27.456 92.4675 27.456H85.4098C83.8141 27.456 82.5253 26.1107 82.5253 24.582V2.87401C82.5253 1.28413 83.8141 0 85.4098 0H92.4675C94.0017 0 95.3519 1.28413 95.3519 2.87401V8.43859L90.6263 9.53928V4.64734H87.2509V22.6864H90.6263V17.3664Z" fill="#81B3D3"/>
<path d="M108.117 0C109.651 0 111.001 1.28413 111.001 2.87401V24.5208C111.001 26.1107 109.651 27.3948 108.117 27.3948H101.059C99.4637 27.3948 98.1749 26.0496 98.1749 24.5208V2.87401C98.1749 1.28413 99.4637 0 101.059 0H108.117ZM106.276 4.70849H102.901V22.7475H106.276V4.70849Z" fill="#81B3D3"/>
<path d="M126.344 0H131.009V27.456H126.344V13.942L124.442 20.913H119.839L117.998 13.942V27.456H113.334V0H117.998L122.171 13.2694L126.344 0Z" fill="#81B3D3"/>
<path d="M146.167 22.7475V27.5171H133.341V0H146.167V4.70849H138.005V11.3126H144.51V16.0211H138.005V22.6864H146.167V22.7475Z" fill="#81B3D3"/>
<path d="M14.2196 175.926C18.9451 174.336 19.252 168.466 14.6492 168.466C13.3604 168.466 11.8261 169.383 10.7828 171.156L4.52294 181.98C4.21608 182.469 3.9706 182.897 3.60237 183.325C2.00672 181.124 2.43632 177.821 4.70705 176.354L3.78648 175.192C-1.1232 178.311 0.349703 187.238 8.51205 187.238C15.447 187.238 18.6996 178.922 14.2196 175.926ZM8.45068 185.465C7.03914 185.465 5.99584 185.159 5.07527 184.67C5.50487 184.181 5.8731 183.631 6.24132 183.019L10.1691 176.232L10.7828 176.293C16.2448 177.455 14.0968 185.465 8.45068 185.465ZM10.9669 174.886L12.8694 171.645C14.5878 168.71 16.7358 170.422 15.5697 172.624C14.6492 174.336 13.3604 174.825 10.9669 174.886Z" fill="white"/>
<path d="M33.9196 183.448C33.5514 184.794 34.2878 185.955 35.8221 185.955C36.7427 185.955 37.9087 185.344 39.0748 184.427C39.1975 185.344 39.9339 185.955 41.1 185.955C42.3274 185.955 43.6776 185.099 45.0278 183.876C44.7823 185.099 45.3346 185.955 46.5007 185.955C47.7894 185.955 49.201 184.794 50.3057 183.754C50.0602 184.977 50.7966 185.955 52.2695 185.955C54.172 185.955 56.3814 183.876 58.3453 181.675C58.3453 181.614 58.2839 181.614 58.2839 181.553C59.5727 180.085 60.6774 178.495 61.5366 177.394C60.616 179.779 61.107 184.121 58.8976 184.121C58.0998 184.121 57.7929 183.265 57.7929 183.265L56.32 183.999C56.32 183.999 56.7496 185.894 58.8976 185.894C59.1431 185.894 59.3272 185.894 59.5727 185.833H59.6341C61.3525 185.588 63.0095 184.549 64.4824 183.265C64.5437 184.794 65.7098 185.894 67.6123 185.894C70.2513 185.894 72.8902 183.815 74.7927 181.614C74.6086 181.308 74.2404 180.941 73.9335 180.819L73.7494 181.002C72.0924 182.959 69.9444 184.488 68.2874 184.488C66.8758 184.488 66.0166 183.571 67.06 181.736L67.3054 181.308C68.7784 181.919 71.6014 181.614 73.3812 178.617L73.688 178.067C74.9155 175.927 73.7494 174.337 71.8469 174.337C69.9444 174.337 68.4715 175.315 67.4896 177.028L65.2188 180.88H65.1575L64.9733 181.063C64.1142 182.042 63.0708 182.959 62.1503 183.571C62.8867 181.369 62.7026 177.945 64.1755 175.01L62.4571 174.092C61.4752 175.438 59.3886 178.434 57.302 180.88L57.3633 180.941L57.302 181.063C55.6449 183.02 53.9879 184.549 52.9446 184.549C52.4536 184.549 52.1468 184.182 52.6991 183.265L57.6702 174.582H55.3381L51.2262 181.797C49.4465 183.387 48.0963 184.304 47.6667 184.121C47.1144 183.876 47.6667 183.02 47.9736 182.531L52.515 174.643H50.1829L46.5007 181.002C46.4393 180.941 46.3779 180.941 46.3165 180.88L46.1324 181.063C44.4754 183.02 42.8184 184.549 41.7751 184.549C41.2841 184.549 40.9773 184.182 41.5296 183.265L45.2732 176.722H43.9231C43.9844 175.743 43.0025 174.398 41.4682 174.398C40.2408 174.398 38.461 175.377 37.4791 177.089L35.147 181.125C35.0243 181.002 34.9015 180.941 34.7788 180.88L34.5947 181.063C32.9377 183.02 30.7897 184.549 29.1326 184.549C27.7211 184.549 26.8619 183.632 27.9052 181.797L30.2987 177.639C31.6489 175.315 34.0423 175.743 32.6308 178.128L32.3239 178.679H34.2264L34.5333 178.128C35.7607 175.988 34.5947 174.398 32.6922 174.398C30.7897 174.398 29.3168 175.377 28.3348 177.089L26.0027 181.063C25.9414 181.002 25.88 181.002 25.8186 180.941L25.6345 181.125C23.9775 183.081 21.8295 184.61 20.1725 184.61C18.7609 184.61 17.9017 183.693 18.9451 181.858L19.1905 181.43C20.6634 182.042 23.4865 181.736 25.2663 178.74L25.5731 178.189C26.8005 176.049 25.6345 174.459 23.732 174.459C21.8295 174.459 20.3566 175.438 19.3746 177.15L16.9198 181.308C15.4469 183.754 16.7357 186.078 19.4974 186.078C21.5226 186.078 23.6092 184.855 25.2663 183.265C25.2049 184.855 26.4323 186.078 28.3962 186.078C30.3601 185.955 32.2626 184.855 33.9196 183.448ZM69.5148 177.578C70.865 175.254 73.2584 175.682 71.8469 178.067L71.54 178.617C70.4354 180.513 68.9011 180.452 68.0419 180.146L69.5148 177.578ZM36.2517 183.265L39.5044 177.639C40.7318 175.499 43.248 176.049 42.0819 178.128L40.2408 181.308C38.8293 183.509 37.4177 184.549 36.4972 184.549C36.0062 184.488 35.6993 184.182 36.2517 183.265ZM21.3999 177.578C22.7501 175.254 25.1435 175.682 23.732 178.067L23.4251 178.617C22.3205 180.513 20.7862 180.452 19.927 180.146L21.3999 177.578Z" fill="white"/>
<path d="M100.323 185.954C102.962 185.954 105.601 183.875 107.503 181.674C107.319 181.368 106.951 181.001 106.644 180.879L106.46 181.062C104.803 183.019 102.655 184.548 100.998 184.548C99.5866 184.548 98.7274 183.63 99.7707 181.796L100.016 181.368C101.489 181.979 104.312 181.674 106.092 178.677L106.399 178.127C107.626 175.987 106.46 174.397 104.558 174.397C102.655 174.397 101.182 175.375 100.2 177.087L97.9296 180.94C97.9296 180.94 97.8682 180.94 97.8682 180.879L97.6841 181.062C96.0271 183.019 94.37 184.548 93.3267 184.548C92.8358 184.548 92.5289 184.181 93.0812 183.263L96.4567 177.393C97.4386 175.62 96.518 174.336 95.2292 174.336C94.2473 174.336 93.1426 174.886 91.9766 176.109L95.7202 169.688H93.3267L86.76 181.001C86.6987 180.94 86.5759 180.879 86.5145 180.817L86.3304 181.001C84.6734 182.958 83.0164 184.486 81.9731 184.486C81.4821 184.486 81.1753 184.12 81.7276 183.202L86.6986 174.519H88.6012L89.2762 173.418H87.3737L89.5831 169.627H87.251L85.0416 173.418H82.955L82.2799 174.519H84.4279L79.7637 182.591C78.7818 184.303 79.4569 185.893 81.3594 185.893C82.5254 185.893 83.7528 185.159 85.0416 184.058L84.1211 185.648H86.4532L90.0127 179.533C93.5722 175.069 95.1679 175.62 94.1859 177.332L91.1787 182.591C90.1968 184.303 90.8719 185.893 92.7744 185.893C94.1859 185.893 95.7816 184.792 97.2545 183.325C97.2545 184.853 98.4205 185.954 100.323 185.954ZM102.226 177.577C103.576 175.253 105.969 175.681 104.558 178.066L104.251 178.616C103.146 180.512 101.612 180.451 100.753 180.145L102.226 177.577Z" fill="white"/>
<path d="M170.9 180.879L170.716 181.063C169.059 183.019 167.402 184.548 166.358 184.548C165.867 184.548 165.561 184.181 166.113 183.264L173.968 169.689H171.636L168.199 175.559C167.77 174.886 167.033 174.336 166.051 174.336C164.824 174.336 163.044 175.315 162.062 177.027L159.792 180.94C159.73 180.94 159.669 180.879 159.669 180.879L159.485 181.063C157.828 183.019 156.171 184.548 155.127 184.548C154.636 184.548 154.33 184.181 154.882 183.264L158.257 177.394C159.239 175.62 158.319 174.336 157.03 174.336C156.048 174.336 154.943 174.886 153.777 176.048L154.636 174.52H152.304L148.561 180.94C148.499 180.879 148.438 180.818 148.315 180.818L148.131 181.001C146.474 182.958 144.817 184.487 143.774 184.487C143.283 184.487 142.976 184.12 143.528 183.203L147.272 176.66H146.106C146.167 175.681 145.185 174.336 143.651 174.336C142.424 174.336 140.644 175.315 139.662 177.027L137.391 180.879L137.268 181.001C135.611 182.958 133.954 184.487 132.911 184.487C132.42 184.487 132.113 184.12 132.666 183.203L134.998 179.167C135.796 177.76 135.427 176.966 134.691 176.048L133.402 174.458C133.095 174.03 133.095 173.541 133.525 173.113L132.297 171.768C130.947 172.93 130.886 174.275 131.684 175.315L131.868 175.559C130.824 177.027 129.474 178.983 127.94 180.757C128.001 180.818 128.063 180.879 128.124 180.94C126.222 183.142 124.565 184.548 122.724 185.343L125.669 180.329H123.399L123.153 180.757C121.926 182.897 120.514 184.487 118.673 184.487C117.077 184.487 116.771 182.897 118.182 180.512L118.857 179.35C119.287 179.412 119.716 179.473 120.207 179.473C128.492 179.473 132.482 168.405 125.178 168.405C123.89 168.405 122.355 169.322 121.312 171.095L117.691 177.332C116.341 176.599 115.604 175.315 115.604 174.03C115.604 172.93 116.095 171.89 117.077 171.095L116.341 169.75C114.684 170.912 113.947 172.502 113.947 174.092C113.947 175.926 114.991 177.699 116.893 178.678L116.218 179.901C114.561 182.714 114.868 185.832 118.182 185.832C119.164 185.832 120.023 185.526 120.698 185.098L120.085 186.138C116.955 187.116 114.991 188.339 114.991 190.113C114.991 192.314 118.428 192.803 120.085 189.929L121.864 186.872C124.258 186.138 126.651 184.487 129.229 181.491C129.167 181.429 129.167 181.368 129.106 181.246C130.149 180.023 131.009 178.861 132.788 176.476L133.095 176.843C133.402 177.21 133.525 177.699 133.218 178.189L130.763 182.469C129.781 184.181 130.456 185.771 132.359 185.771C133.525 185.771 134.814 185.037 136.041 183.937C136.041 184.976 136.716 185.771 138.066 185.771C138.987 185.771 140.153 185.16 141.319 184.242C141.442 185.16 142.178 185.771 143.344 185.771C144.449 185.771 145.676 185.098 146.842 184.059L145.983 185.526H148.315L151.875 179.35C155.434 174.886 157.03 175.498 155.987 177.21L152.979 182.469C151.998 184.181 152.673 185.771 154.575 185.771C155.802 185.771 157.153 184.915 158.503 183.753C158.38 184.915 159.117 185.771 160.528 185.771C161.449 185.771 162.615 185.16 163.781 184.242C163.903 185.16 164.64 185.771 165.806 185.771C167.708 185.771 169.918 183.692 171.882 181.491C171.636 181.368 171.207 181.001 170.9 180.879ZM123.092 172.196C123.767 171.034 124.565 170.484 125.178 170.484C128.861 170.484 126.283 178.005 120.207 178.005H119.716L123.092 172.196ZM118.121 189.685C117.63 190.541 116.832 190.418 116.832 189.807C116.832 189.195 117.384 188.523 119.164 187.85L118.121 189.685ZM142.485 181.246C141.073 183.447 139.662 184.487 138.741 184.487C138.25 184.487 137.944 184.12 138.496 183.203L141.749 177.577C142.976 175.437 145.492 175.987 144.326 178.066L142.485 181.246ZM165.008 181.124C163.597 183.447 162.185 184.487 161.203 184.487C160.712 184.487 160.405 184.12 160.958 183.203L164.21 177.577C165.438 175.437 167.954 175.987 166.788 178.066L165.008 181.124Z" fill="white"/>
<path d="M93.1427 202.893L92.9586 203.076C91.3016 205.033 89.6446 206.561 88.6013 206.561C88.1103 206.561 87.8034 206.195 88.3558 205.277L91.7312 199.407C92.7131 197.634 91.7925 196.35 90.5038 196.35C89.5218 196.35 88.4171 196.9 87.2511 198.062L88.1103 196.533H85.7782L82.0346 203.015C81.9118 202.954 81.8504 202.893 81.7277 202.831L81.5436 203.015C80.5003 204.177 79.2115 204.727 78.0454 204.727L80.2548 200.936C81.6663 198.49 80.3775 196.227 78.1682 196.227C76.3884 196.227 74.9769 196.961 73.6267 199.285L72.4607 201.242L71.4787 202.954C71.4174 202.893 71.356 202.893 71.2946 202.831L71.1105 203.015C69.208 205.216 67.551 206.623 65.7099 207.418L72.0924 196.533H69.7603L65.6485 203.687C63.8687 205.339 62.4572 206.256 62.0276 206.072C61.4752 205.828 62.0276 204.972 62.3344 204.482L66.8759 196.594H64.5438L60.8002 203.015C60.7388 202.954 60.6774 202.954 60.6161 202.893L60.4319 203.076C58.7749 205.033 57.1179 206.561 56.0746 206.561C55.5836 206.561 55.2768 206.195 55.8291 205.277L59.2045 199.407C60.1865 197.634 59.2659 196.35 57.9771 196.35C56.9952 196.35 55.8905 196.9 54.7244 198.062L55.5836 196.533H53.2515L49.5079 202.954C49.4465 202.893 49.3851 202.831 49.2624 202.831L49.0783 203.015C47.4213 204.972 45.7643 206.5 44.721 206.5C44.23 206.5 43.9231 206.133 44.4755 205.216L48.2191 198.673H46.8689C46.9303 197.695 45.9484 196.35 44.4141 196.35C43.1867 196.35 41.4069 197.328 40.425 199.04L38.0315 203.198C37.8474 203.076 37.6633 202.954 37.5405 202.893L37.3564 203.076C35.6994 205.033 33.6128 206.561 31.3421 206.561C29.7464 206.561 28.7645 204.972 30.176 202.587L30.8511 201.425C31.2807 201.486 31.7103 201.547 32.2013 201.547C34.6561 201.547 37.4792 200.263 39.3203 197.083C39.9954 195.922 40.2409 194.882 40.2409 193.965C40.2409 191.886 38.8907 190.479 37.1723 190.479C35.8835 190.479 34.3492 191.396 33.3059 193.17L29.685 199.407C28.3349 198.673 27.5984 197.389 27.5984 196.105C27.5984 195.004 28.0894 193.965 29.0713 193.17L28.3349 191.825C26.6779 192.986 25.9414 194.576 25.9414 196.166C25.9414 198.001 26.9847 199.774 28.8872 200.752L28.2121 201.975C26.5551 204.788 27.5371 207.907 30.8511 207.907C33.4287 207.907 35.3925 206.745 36.9882 205.216C36.4972 206.684 37.2337 207.907 38.8907 207.907C39.8113 207.907 40.9773 207.295 42.1434 206.378C42.2661 207.295 43.0026 207.907 44.1686 207.907C45.2733 207.907 46.5007 207.234 47.6668 206.195L46.8076 207.662H49.1397L52.6992 201.486C56.2587 197.022 57.8544 197.634 56.811 199.346L53.8039 204.605C52.8219 206.317 53.497 207.907 55.3995 207.907C56.6269 207.907 58.0385 207.051 59.3886 205.828C59.0818 207.112 59.6955 207.907 60.8615 207.907C61.9662 207.907 63.255 206.99 64.2983 206.011L63.0095 208.213C59.8796 209.13 57.8544 210.414 57.8544 212.187C57.8544 214.389 61.2911 214.878 62.9482 212.004L64.7279 208.946C66.6918 208.335 68.5943 207.112 70.6195 205.155C70.3127 208.396 74.6087 209.13 77.2476 205.828H77.7386C78.5978 205.828 79.7638 205.522 80.8071 204.91L79.2729 207.601H81.6049L85.1645 201.425C88.724 196.961 90.3196 197.573 89.2763 199.285L86.2692 204.544C85.2872 206.256 85.9623 207.846 87.8648 207.846C89.7673 207.846 91.9767 205.767 93.9405 203.565C93.8792 203.382 93.4496 203.015 93.1427 202.893ZM35.2084 194.209C35.8835 193.048 36.6813 192.497 37.2951 192.497C38.1542 192.497 38.5838 193.048 38.5838 193.904C38.5838 196.044 35.9449 199.957 32.324 199.957H31.833L35.2084 194.209ZM43.4322 203.259C42.0206 205.461 40.6091 206.5 39.6885 206.5C39.1976 206.5 38.8907 206.133 39.443 205.216L42.6957 199.59C43.9231 197.45 46.4393 198.001 45.2733 200.08L43.4322 203.259ZM61.107 211.698C60.6161 212.554 59.8182 212.432 59.8182 211.82C59.8182 211.209 60.3706 210.536 62.1503 209.864L61.107 211.698ZM76.818 203.015H76.6953C75.9588 203.015 75.3451 203.626 75.3451 204.421C75.3451 204.727 75.4065 204.972 75.5906 205.216V205.277C74.4859 207.173 71.847 206.806 73.1971 204.36L74.9769 201.303L76.0816 199.407C77.7386 196.655 79.9479 197.756 78.5364 200.141L76.818 203.015Z" fill="white"/>
<path d="M147.088 203.688C146.965 203.322 146.536 202.955 146.229 202.893L146.045 203.077C145.185 204.055 144.142 204.973 143.221 205.584C143.958 203.383 143.774 199.958 145.247 197.023L143.528 196.106C142.546 197.451 140.46 200.448 138.373 202.893L138.189 203.077C136.532 205.034 134.875 206.562 133.832 206.562C133.341 206.562 132.85 206.073 132.85 204.973V203.994C134.507 204.178 136.225 203.138 137.33 201.242L137.944 200.142C140.092 196.412 136.593 195.189 134.2 197.39L137.514 191.642H135.182L128.554 203.138C128.431 203.016 128.247 202.893 128.124 202.832L127.94 203.016C126.283 204.973 124.135 206.501 122.478 206.501C121.067 206.501 120.207 205.584 121.251 203.75L123.644 199.591C124.994 197.268 127.388 197.696 125.976 200.081L125.669 200.631H127.572L127.879 200.081C129.106 197.94 127.94 196.351 126.038 196.351C124.135 196.351 122.662 197.329 121.68 199.041L119.409 202.955C119.348 202.955 119.287 202.893 119.287 202.893L119.103 203.077C117.446 205.034 115.789 206.562 114.745 206.562C114.254 206.562 113.947 206.196 114.5 205.278L119.471 196.595H117.139L113.027 203.811C111.247 205.401 109.897 206.318 109.467 206.134C108.915 205.89 109.467 205.034 109.774 204.545L114.316 196.656H111.984L107.442 204.422C106.951 204.85 106.399 205.278 105.969 205.645C106.706 203.444 106.522 200.019 107.994 197.084L106.276 196.167C105.294 197.512 99.9549 204.606 97.8069 207.052C97.991 207.357 98.3592 207.602 98.6661 207.847C100.016 206.318 104.435 200.631 105.233 199.53C104.312 201.915 104.803 206.257 102.594 206.257C101.796 206.257 101.489 205.401 101.489 205.401L100.016 206.134C100.016 206.134 100.446 208.03 102.594 208.03C102.839 208.03 103.023 208.03 103.269 207.969H103.33C104.496 207.785 105.662 207.296 106.767 206.501C106.767 207.419 107.319 208.03 108.301 208.03C109.59 208.03 111.002 206.868 112.106 205.829C111.861 207.052 112.597 208.03 114.07 208.03C115.543 208.03 117.139 206.868 118.673 205.339C118.673 206.868 119.9 208.03 121.803 208.03C123.705 208.03 125.547 206.99 127.204 205.584L125.915 207.847H128.247L130.886 203.26V205.095C130.886 207.052 131.254 208.091 133.157 208.091C135.059 208.091 137.268 206.012 139.232 203.811C140.583 202.282 141.687 200.692 142.546 199.591C141.626 201.976 142.117 206.318 139.907 206.318C139.11 206.318 138.803 205.462 138.803 205.462L137.33 206.196C137.33 206.196 137.759 208.091 139.907 208.091C140.153 208.091 140.337 208.091 140.583 208.03H140.644C142.976 207.602 145.369 205.706 147.088 203.688ZM131.622 201.854L132.297 200.692C134.998 196.962 136.839 198.002 135.98 199.408L134.875 201.304C134.2 202.527 132.175 203.383 131.622 201.854Z" fill="white"/>
<path d="M147.026 205.278C146.29 205.278 145.676 205.89 145.676 206.623C145.676 207.357 146.229 207.969 147.026 207.969C147.763 207.969 148.377 207.418 148.377 206.623C148.377 205.89 147.763 205.278 147.026 205.278Z" fill="white"/>
<path d="M147.149 204.36H149.481L156.785 191.702H154.452L147.149 204.36Z" fill="white"/>
</svg>
